# xmcd
#
# Track frame offsets: 
#        150
#        13839
#        27790
#        42993
#        60565
#        72755
#        88228
#        104557
#        119850
#        130986
#        146233
#        157913
#
# Disc length: 2269 seconds
#
# Revision: 0
# Processed by: cddbd v1.5.1PL0 Copyright (c) Steve Scherf et al.
# Submitted via: ExactAudioCopy v0.95a5
#
DISCID=af08db0c
DTITLE=Various Artist - Pickin On Kenny Chesney
DYEAR=2004
DGENRE=Bluegrass
TTITLE0=Don't Happen Twice
TTITLE1=Me And You
TTITLE2=I Lost It
TTITLE3=Grandpa Told Me So
TTITLE4=Whatever It Takes
TTITLE5=Big Star
TTITLE6=A Lot Of Things Different
TTITLE7=What I Need To Do
TTITLE8=Fall In Love
TTITLE9=A Chance
TTITLE10=All I Need To Know
TTITLE11=Skinny Dipping
EXTD=
EXTT0=
EXTT1=
EXTT2=
EXTT3=
EXTT4=
EXTT5=
EXTT6=
EXTT7=
EXTT8=
EXTT9=
EXTT10=
EXTT11=
PLAYORDER=
